<?xml version="1.0" encoding="utf-8"?>
<svg width="201px" height="201px" viewBox="0 0 201 201" version="1.1" xmlns:xlink="http://www.w3.org/1999/xlink" xmlns="http://www.w3.org/2000/svg">
  <desc>Created with Lunacy</desc>
  <defs>
    <filter id="filter_1">
      <feColorMatrix in="SourceGraphic" type="matrix" values="0 0 0 0 1 0 0 0 0 1 0 0 0 0 1 0 0 0 1 0" />
    </filter>
  </defs>
  <g id="email" filter="url(#filter_1)">
    <path d="M0 100.406C0 45.042 45.042 0 100.406 0C155.77 0 200.812 45.042 200.812 100.406L200.812 123.636C200.812 140.579 187.026 154.363 170.083 154.363C157.221 154.363 146.186 146.416 141.614 135.178C131.71 146.9 116.916 154.363 100.405 154.363C70.655 154.363 46.452 130.158 46.452 100.406C46.452 70.656 70.655 46.453 100.405 46.453C130.154 46.453 154.356 70.656 154.356 100.406L154.356 123.636C154.356 132.308 161.411 139.363 170.083 139.363C178.756 139.363 185.812 132.308 185.812 123.636L185.812 100.406C185.812 53.313 147.499 15 100.406 15C53.313 15 15 53.313 15 100.406C15 147.501 53.313 185.815 100.406 185.815C104.549 185.815 107.906 189.173 107.906 193.315C107.906 197.457 104.549 200.815 100.406 200.815C45.042 200.815 0 155.772 0 100.406ZM61.453 100.406C61.453 121.887 78.927 139.363 100.406 139.363C121.884 139.363 139.357 121.887 139.357 100.406C139.357 78.927 121.884 61.453 100.406 61.453C78.928 61.453 61.453 78.927 61.453 100.406Z" id="Shape" fill="#000000" fill-rule="evenodd" stroke="none" />
  </g>
</svg>