<?xml version="1.0" encoding="UTF-8"?>
<svg width="62px" height="106px" viewBox="0 0 62 106" version="1.1" xmlns="http://www.w3.org/2000/svg" xmlns:xlink="http://www.w3.org/1999/xlink">
    <title>Group 14</title>
    <g id="Page-1" stroke="none" stroke-width="1" fill="none" fill-rule="evenodd">
        <g id="IOT4Camp" transform="translate(-928.000000, -811.000000)" fill="#FFFFFF">
            <g id="mouse-clicker" transform="translate(959.000000, 864.000000) rotate(180.000000) translate(-959.000000, -864.000000) translate(928.000000, 811.000000)">
                <g id="Group-13">
                    <g id="Group-14" transform="translate(0.000000, -0.000000)">
                        <path d="M31,-4.97379915e-14 C13.9063392,-4.97379915e-14 0,13.8754879 0,30.9312261 L0,74.2256366 C0,91.2813749 13.9063392,105.156863 31,105.156863 C48.0936608,105.156863 62,91.2813749 62,74.2256366 L62,30.9312261 C62,13.8754879 48.0936608,-4.97379915e-14 31,-4.97379915e-14 Z M55.6768169,74.2256366 C55.6768169,87.8018727 44.6064222,98.8477077 30.9999999,98.8477077 C17.3935778,98.8477077 6.32318307,87.8018727 6.32318307,74.2256366 L6.32318307,30.9312261 C6.32318307,17.35499 17.3935778,6.30915503 30.9999999,6.30915503 C44.6064222,6.30915503 55.6768169,17.35499 55.6768169,30.9312261 L55.6768169,74.2256366 Z" id="Shape" fill-rule="nonzero"></path>
                        <circle id="Oval" cx="31" cy="52.2745098" r="6.68627451"></circle>
                    </g>
                </g>
            </g>
        </g>
    </g>
</svg>