<?xml version="1.0" encoding="utf-8"?>
<svg width="512px" height="512px" viewBox="0 0 512 512" version="1.1" xmlns:xlink="http://www.w3.org/1999/xlink" xmlns="http://www.w3.org/2000/svg">
  <desc>Created with Lunacy</desc>
  <g id="phone">
    <path d="M498.816 377.633L435.167 313.984C417.619 296.437 389.065 296.437 371.518 313.984L342.587 342.915C329.293 356.209 307.661 356.205 294.372 342.92L168.972 217.413C155.647 204.088 155.645 182.521 168.972 169.194L197.903 140.263C215.374 122.793 215.618 94.328 197.886 76.598L134.254 13.166C116.706 -4.38099 88.1534 -4.38099 70.6524 13.12C57.5564 26.102 53.3324 30.29 47.4604 36.111C-15.8196 99.39 -15.8196 202.353 47.4574 265.63L246.149 464.426C309.577 527.855 412.237 527.86 475.67 464.426L498.816 441.281C516.364 423.733 516.364 395.181 498.816 377.633ZM113.055 34.398C107.187 28.532 97.6714 28.533 91.8224 34.382L81.2684 44.844L166.078 129.654L176.687 119.046C182.55 113.182 182.55 103.693 176.687 97.83L113.055 34.398ZM267.369 443.213L68.6764 244.415C19.7184 195.457 17.0274 118.582 60.4004 66.409L144.964 150.973C122.744 176.162 123.67 214.545 147.751 238.626L273.147 364.127L273.151 364.131C297.206 388.187 335.587 389.173 360.807 366.923L445.373 451.489C393.366 494.787 316.664 492.508 267.369 443.213ZM466.992 430.674L477.601 420.065C483.45 414.217 483.45 404.699 477.6 398.849L413.951 335.2C408.101 329.35 398.584 329.351 392.734 335.2L382.127 345.808L466.992 430.674Z" id="Shape" fill="#FFFFFF" fill-rule="evenodd" stroke="none" />
  </g>
</svg>