<svg id="Layer_1" data-name="Layer 1" xmlns="http://www.w3.org/2000/svg" viewBox="0 0 431.52 214.27"><defs><style>.cls-1{fill:#fff;}.cls-2{fill:#ed1f24;}</style></defs><title>404notfound</title><path class="cls-1" d="M182.81,155c5.71-2.41,9.81-.65,9.81,4.08a5,5,0,0,1-3.91,5.26,5.17,5.17,0,0,1-6.35-2.69c-1.54-2.82-2.83-5.78-4.4-8.59-7.44-13.28-5.93-27.62,4.43-40.8a27.26,27.26,0,0,1,4.74-5.28c3.52-2.61,4.18-5.91,4.11-10-.21-14.49,0-29-.13-43.49,0-2.45.53-4.26,2.58-5.78,6.92-5.14,13.68-10.49,20.66-15.54a9.94,9.94,0,0,1,5.48-1.73c24-.12,48-.09,72-.08,4.61,0,5.48.86,5.48,5.44,0,21,.07,42-.05,63a9.12,9.12,0,0,0,3.12,7.45c7.78,7.39,13.39,16.07,14.53,27.12.7,6.83-1.09,13-4.06,19.1a12.87,12.87,0,0,0-1.06,5.84c.11,2.93-1.43,5.63-4.25,6.15s-5.21-.47-6.33-3.34c-1.06-2.72.18-6.59,2.81-6.82,8.07-.69,8.58-7.28,9.58-12.54,2.65-13.89-4.06-24.43-14.11-34.55v31.7c-4.38.94-4.68.72-4.68-3.69q0-47.43,0-94.86c0-5.63,0-5.62-5.71-5.62-20.75,0-41.5.09-62.24-.06-3.57,0-4.88.91-4.67,4.59.29,5,0,10,.07,15,0,2.78-1.09,3.73-4,3.25-5.9-1-11.87-1.59-17.78-2.52-3.46-.55-2.89,1.78-2.89,3.69q0,29.63,0,59.24V128.7c-3.24.56-4.61-.18-4.5-3.35.19-5.72,0-11.44,0-17.41C177.76,117.86,169.87,138.64,182.81,155ZM215.58,36.41,196.87,50.26l18.71,2.47Zm-31.06,123a2.83,2.83,0,1,0,2.83-2.84A2.83,2.83,0,0,0,184.52,159.38Zm117,0a2.84,2.84,0,1,0,2.83-2.84A2.83,2.83,0,0,0,301.47,159.38Z" transform="translate(-25.18 -30.34)"/><path class="cls-1" d="M245.14,94.1c9.71.26,17.92,3.82,25.2,9.7.67.54.78,1.77,1.15,2.68-1-.2-2.18-.11-2.91-.64-6-4.43-12.41-7.88-20-8.68-1-.1-2-.21-3-.23-5.51-.06-5.55.09-5.93,5.52-.35,5-.75,9.93-1.56,14.82-.58,3.52-2.56,6.22-6.56,6.62-4.21.43-7.14-1.09-8.94-5.2-1.08-2.47-1.45-5.24-2.27-7.84-.42-1.3-1.41-2.46-1.6-3.77a4.12,4.12,0,0,1,.88-3.27A41.58,41.58,0,0,1,245.14,94.1Zm-17.49,7.22c-1.81,1.8-4.5,3.31-4.38,4.57.4,4.36,1.11,9,3,12.85a4.6,4.6,0,0,0,8.63-1c1.38-6.2,1.77-12.62,2.6-19.13-4.66.15-6.59,1.53-6.1,5.53a69,69,0,0,1,.2,9,15.65,15.65,0,0,1-.6,3C227.05,111.92,229.73,106.81,227.65,101.32Z" transform="translate(-25.18 -30.34)"/><path class="cls-1" d="M229.44,162.3a50.18,50.18,0,0,1,2.95,6c.3.91-.36,2.14-.58,3.22-1-.45-2.44-.64-2.94-1.42-1.39-2.2-2.32-4.68-3.59-7-.41-.73-1.32-1.2-2.74-2.43-.39,3-.43,5.07-1,7-.31,1-1.58,1.75-2.41,2.61-.57-1-1.69-2-1.62-2.85.43-5.33,1.13-10.64,1.74-15.95.26-2.27,1.44-3.32,3.79-3,2,.3,4,.41,5.91.76,2.83.51,4.82,2.14,5.31,5a6.25,6.25,0,0,1-3.33,6.9C230.5,161.54,230.13,161.83,229.44,162.3Zm-6.06-10.72c-.22,2.81-.34,4.35-.53,6.82a55.83,55.83,0,0,0,6.61-1.29c.37-.11.64-2.36.32-2.56A63,63,0,0,0,223.38,151.58Z" transform="translate(-25.18 -30.34)"/><path class="cls-1" d="M287,168.66a52.23,52.23,0,0,1,2.93,6c.3.88-.3,2.08-.5,3.13-1-.43-2.47-.59-3-1.36-1.35-2.07-2.22-4.45-3.47-6.6-.42-.72-1.42-1.12-2.15-1.66a9.87,9.87,0,0,0-1.26,2.4c-.33,1.44-.14,3-.65,4.39-.3.81-1.51,1.28-2.31,1.9-.51-.76-1.53-1.56-1.46-2.26.51-5.95,1.13-11.89,2-17.79.12-.77,1.77-1.88,2.69-1.87,2.47,0,5.21,0,7.3,1.11s4.19,3.2,4.47,5.14-1.69,4.21-2.79,6.27C288.53,168,287.78,168.16,287,168.66Zm-5.3-10.26-1.1,1c.23,1.64-.05,4.21.83,4.71,1.34.75,3.54.29,5.26-.12.48-.12,1-2.59.78-2.73A53.1,53.1,0,0,0,281.67,158.4Z" transform="translate(-25.18 -30.34)"/><path class="cls-1" d="M248.54,164.48a45.66,45.66,0,0,1,2.88,5.92c.31.91-.37,2.15-.61,3.24-1-.49-2.36-.72-2.88-1.51-1.29-2-2.09-4.26-3.3-6.29a9.6,9.6,0,0,0-2.35-2,13.59,13.59,0,0,0-1.14,2.49c-.35,1.45-.31,3-.79,4.41-.26.74-1.28,1.21-2,1.8-.58-.68-1.71-1.41-1.66-2q.72-9.13,1.89-18.24a2.77,2.77,0,0,1,2.15-1.63c3.08.32,6.34.45,9.14,1.61C255,154.36,254.35,160.55,248.54,164.48Zm-6.79-4.5c3-.24,6.46,2.05,7.28-2.07.55-2.79-2.29-3.13-4.39-3.21C240.69,154.54,242.5,157.61,241.75,160Z" transform="translate(-25.18 -30.34)"/><path class="cls-1" d="M272.61,162.22c-.24,1.91-.39,4.54-.93,7.09a7.57,7.57,0,0,1-8.82,6.18c-4.56-.58-7.42-3.9-7.15-8.46.14-2.35.41-4.71.77-7,.79-5.08,3.76-7.36,8.83-6.92S272.75,156.34,272.61,162.22Zm-4.15.06c.06-2.66,0-5.2-3.52-5.48s-4.17,2-4.39,4.73c-.17,2.1-1,4.34-.48,6.27a5.87,5.87,0,0,0,3.59,3.73c1,.22,3.14-1.64,3.78-3C268.28,166.65,268.16,164.37,268.46,162.28Z" transform="translate(-25.18 -30.34)"/><path class="cls-1" d="M207,155.83a30.4,30.4,0,0,1,5,.69c.85.26,1.45,1.35,2.17,2.06a8.18,8.18,0,0,1-2.57,1.41,37.92,37.92,0,0,1-5.11.07c-1.25,4.79-1.23,4.81,3,5.33a10.51,10.51,0,0,1,2.93.58c.67.3,1.13,1.08,1.69,1.65-.66.61-1.35,1.78-2,1.74a57.18,57.18,0,0,1-9.23-1.22c-.7-.15-1.56-1.89-1.49-2.84.41-5.35,1-10.69,1.72-16,.12-.92,1.17-2.47,1.73-2.44a85.59,85.59,0,0,1,10,1.13c.39.06.93,1.25.81,1.78a2.23,2.23,0,0,1-1.58,1.19,13,13,0,0,1-3-.07C206.67,150.66,206.56,150.77,207,155.83Z" transform="translate(-25.18 -30.34)"/><path class="cls-1" d="M213.14,243.76a6.48,6.48,0,0,1-.85-2q-.1-7.11,0-14.22c0-.72.63-1.44,1-2.16.69.42,1.63.68,2,1.28,2,3,3.89,6.09,5.84,9.13.63,1,1.33,1.89,2,2.84l1.09-.28V225.37l1.66,0a186,186,0,0,1,0,19.23c-5.21-4.27-6.81-10-11.33-14.88v13.77Z" transform="translate(-25.18 -30.34)"/><path class="cls-1" d="M323.11,224.84l9,13.59,1.08-.14V225.43l1.43,0V243.6l-1,.54-9.21-13.89-1.09.08v13.42l-1.35-.09V225.55Z" transform="translate(-25.18 -30.34)"/><path class="cls-1" d="M340.53,225.52l3-.22c10.11-.8,11.39,5.49,9.29,14.11-.82,3.37-8.81,5.89-11.57,4a2.62,2.62,0,0,1-.88-1.88c-.08-4.11-.06-8.23-.05-12.34C340.33,228.05,340.44,227,340.53,225.52Zm2,16.15c3.38.24,7.18,1,8.09-2.57a17.63,17.63,0,0,0-.69-10.34c-.58-1.46-4.56-1.55-7.4-2.37Z" transform="translate(-25.18 -30.34)"/><path class="cls-1" d="M230,234.28c0-7.57,2.65-10.21,9-9a6.86,6.86,0,0,1,1.43.39c3.95,1.7,4.3,6.91,3.1,13.48-.68,3.72-4.42,5.44-8.52,4.56C231.23,242.9,230,240.66,230,234.28Zm2.08,0h0c0,.75,0,1.5,0,2.25-.08,3.16,1,5.39,4.55,5.55,3.32.16,5-1.5,5.22-5.35a35.27,35.27,0,0,0-.26-6.33c-.36-3-2.52-3.86-5.12-3.73a4.22,4.22,0,0,0-4.34,4.25C232.05,232,232.12,233.16,232.12,234.28Z" transform="translate(-25.18 -30.34)"/><path class="cls-1" d="M299.58,234.54c0,6.93-2.44,9.75-8,9.27-.25,0-.58.06-.74-.07-1.69-1.46-4.57-2.79-4.79-4.47-.56-4.23-2.31-9.4,1.77-12.56,1.9-1.47,5.78-1.53,8.32-.75C300,227.16,299.61,231.16,299.58,234.54Zm-11.94-.35h0c0,1,0,2,0,3,.07,2.94,1.47,4.72,4.49,4.91,3.17.19,5-1.43,5.28-4.52a34.39,34.39,0,0,0-.06-6.73c-.32-3-2.26-4.36-5.19-4.18a4.36,4.36,0,0,0-4.5,4.53C287.59,232.19,287.64,233.19,287.64,234.19Z" transform="translate(-25.18 -30.34)"/><path class="cls-1" d="M153.52,243.37c.88-2.49,1.75-5,2.66-7.46,1.12-3,2.23-6.07,3.42-9.08.62-1.58,2.08-2.53,2.89-.64a129.89,129.89,0,0,1,6,17.49c-2.71-1.2-2.9-4.88-7.12-4.65-3.9.22-5,2.44-6.43,5.29Zm11.06-5.88-3.39-9.42c-1.31,3.74-2.26,6.43-3.31,9.42Z" transform="translate(-25.18 -30.34)"/><path class="cls-1" d="M177.63,233.71c2.54.52,5.53-2.06,6.27,2.14.92,5.3-.47,7.54-4.62,8-5.51.55-8.22-1.84-8.34-7.39,0-1.62-.44-3.41.11-4.82.84-2.15,1.91-4.88,3.7-5.83a5.83,5.83,0,0,1,8,1.86c-1-.3-2-.65-3.09-.89-3.67-.85-6.21.84-6.49,4.57a32.46,32.46,0,0,0,.26,7.44c.48,2.9,2.94,4,6,3.43s2.78-3.12,2.23-5C181.23,236,179.39,235.19,177.63,233.71Z" transform="translate(-25.18 -30.34)"/><path class="cls-1" d="M315.9,225.26c.31.55.87,1.09.88,1.65.07,3.73.2,7.48,0,11.2s-3,5.8-6.93,5.71-6.23-2.17-6.33-6.2,0-8.19,0-12.28l1.65,0a29.85,29.85,0,0,1,.4,3.24c.06,3,.05,6,0,9s1.36,4.44,4.23,4.57c3,.14,4.74-1.41,4.9-4.39s0-6,.09-9c0-1.13.21-2.26.32-3.38Z" transform="translate(-25.18 -30.34)"/><path class="cls-1" d="M140.71,243.75a12.33,12.33,0,0,1-.54-2.49c-.06-4.37,0-8.75-.06-13.11-.05-2.09.69-3,2.81-2.87,1.62.11,3.27-.11,4.86.13,3.08.46,4.95,2.15,5,5.49s-1.63,5.08-4.84,5.53a7.89,7.89,0,0,1-1.86.19c-3.14-.35-4.29,1-3.92,4.1a11.86,11.86,0,0,1-.37,3Zm1.53-12.81c-.27,2.41-.22,4.53,3.27,4.15,2.63-.28,5.08-.55,5.14-4,.06-3.73-2.6-3.88-5.33-4.17C142,226.59,142,228.63,142.24,230.94Z" transform="translate(-25.18 -30.34)"/><path class="cls-1" d="M198.43,226.89c-1.65,0-3.31.11-5,0-2.69-.22-3.38,1-3.36,3.55s.81,3.42,3.26,3.18c1.49-.15,3,0,4.5,0l0,1.35-7.37.62v6.4h8.27v1.25a19.27,19.27,0,0,1-9.66.09c-.49-.1-1-1.63-1-2.52-.09-4.23-.14-8.48,0-12.71,0-.92,1-2.51,1.69-2.58a79.3,79.3,0,0,1,8.45-.13Z" transform="translate(-25.18 -30.34)"/><path class="cls-1" d="M221.13,72.83l-3.4-4.89,1.14-1L224,70.57,228.86,67c1,2.11,1,2.11-3.06,7a24.81,24.81,0,0,1,3.47,2c.41.31.32,1.29.46,2-.77,0-1.72.3-2.28,0A28.29,28.29,0,0,1,224,74.91a32.13,32.13,0,0,1-3.38,2.78c-.6.37-1.53.19-2.32.26.17-.78.08-1.81.56-2.26a17,17,0,0,1,3.17-2Z" transform="translate(-25.18 -30.34)"/><path class="cls-1" d="M264,71.34a26.31,26.31,0,0,1-3.4-2.66c-.47-.51-.48-1.45-.7-2.19a6.66,6.66,0,0,1,2.57.26,24.83,24.83,0,0,1,3.25,2.7,33.5,33.5,0,0,1,3.62-2.93c.56-.34,1.51-.06,2.29-.06-.15.67-.08,1.54-.48,2A45.77,45.77,0,0,1,267,71.83c1.6,1,2.76,1.39,3.45,2.19s.6,1.79.86,2.71a9.06,9.06,0,0,1-2.51-.63,27.72,27.72,0,0,1-3.15-2.48,33.85,33.85,0,0,1-3.41,2.83c-.58.37-1.5.21-2.26.28.12-.73,0-1.65.42-2.17A33.08,33.08,0,0,1,264,71.34Z" transform="translate(-25.18 -30.34)"/><path class="cls-1" d="M274.31,227.22v6.14l7.05.43.1,1-7.19.81c-.17,2.82-.33,5.49-.5,8.16h-1.45c-.11-1.36-.29-2.71-.32-4.06-.05-2.24,0-4.48,0-6.72,0-8.29,1.58-9.39,10.09-6.47Z" transform="translate(-25.18 -30.34)"/><path class="cls-1" d="M251.91,243.7a25.13,25.13,0,0,1-.56-3.29c-.09-2.25,0-4.5,0-6.75,0-5.93,0-5.93-5-7.89h12.13l.18.55-5.33,1.12v16.19Z" transform="translate(-25.18 -30.34)"/><path class="cls-2" d="M391,74.77a9.9,9.9,0,0,0-2.48,6.31c0,3-3.1,8.17-12.63,21.67-7.06,9.78-13.5,17.83-14.36,17.83-2.6,0-7.68,5.82-7.68,8.67,0,3.34,5.32,8.66,8.67,8.66,1.36,0,4-1.36,5.69-3.09,2.73-2.73,4.21-3.1,11.77-3.1,6.31,0,8.79.5,9.28,1.74,1.24,3.09,7.31,4.82,10.65,3.09a11.75,11.75,0,0,0,3.71-2.85c1.74-2.6,1-7.8-1.48-10-2.23-2-2.48-3.83-2.48-18.57s.25-16.59,2.48-18.57c5.08-4.58,1.36-14.24-5.57-14.24A9.07,9.07,0,0,0,391,74.77Zm-.13,49.15c-2.47,2.48-4,2.85-11.76,2.85-13.25,0-13.13-1.12,1.61-21.55l12.13-16.83.37,16.34C393.51,120,393.39,121.07,390.91,123.92Zm10.61-43.21a4.85,4.85,0,1,1-4.85-4.85A4.85,4.85,0,0,1,401.52,80.71Zm-33.89,48.53a4.85,4.85,0,1,1-4.85-4.85A4.85,4.85,0,0,1,367.63,129.24Z" transform="translate(-25.18 -30.34)"/><path class="cls-2" d="M418.4,37.12c-3.34,4.21-3.22,5.7.49,10.16L422,51v69.46l-3.1,3.1c-4,4-4,7.43,0,11.27s7.31,4,11.27,0c8.79-8.79,20.93,4.33,13,13.86-3.09,3.72-9.9,3.84-12.87.38-6.32-7.43-18.08,2-12.39,9.78,3.22,4.21,8.92,4.95,12.14,1.36,3-3.22,9.66-3.34,13,0,3,3,7.06,3.22,10.89.49,3.6-2.47,3.72-9.16.25-12.25a8.88,8.88,0,0,1-2.47-6.69c0-3,.86-5.2,2.47-6.69,2.48-2.1,3.35-7.67,1.49-10.27-1.49-2.35-6.44-4.34-8.79-3.59a12.14,12.14,0,0,0-4.46,3.09c-3.1,3.47-8.54,3.1-12.38-.62l-3.1-3.22V51l3.1-3.71c3.71-4.46,3.84-6,.49-10.16a7.33,7.33,0,0,0-12.13,0Zm11,4.86a4.85,4.85,0,1,1-4.85-4.85A4.85,4.85,0,0,1,429.38,42ZM454,129.24a4.85,4.85,0,1,1-4.85-4.85A4.85,4.85,0,0,1,454,129.24Z" transform="translate(-25.18 -30.34)"/><path class="cls-2" d="M391.28,35.89c-2.35,1.61-2.84,3-2.6,6.68.37,4.46-1.48,7.43-26,41.36C348.19,104,335.32,120.83,334,121.2c-6.2,2-8.3,9.9-3.6,13.86,3.35,2.85,3.35,10.41,0,13.38-5.44,4.95-1.73,14.24,5.82,14.24,6.69,0,10.28-9.66,5.33-14.24-3.34-3-3.34-10.53,0-13.38,2.72-2.22,3.34-8.17,1.11-10.4-1.11-1.11,1.61-5.69,10.9-18.57C396.11,47,393.76,50,397.23,50c4.33,0,7.43-3.47,7.43-8.29C404.66,34.77,397.35,31.68,391.28,35.89ZM401.52,42a4.85,4.85,0,1,1-4.85-4.85A4.85,4.85,0,0,1,401.52,42ZM340.71,154.41a4.85,4.85,0,1,1-4.85-4.85A4.85,4.85,0,0,1,340.71,154.41Z" transform="translate(-25.18 -30.34)"/><path class="cls-2" d="M364.66,148.81c-2.72,3.09-2.6,9.28.13,11.76a8.53,8.53,0,0,0,11.39-.37c1.61-1.61,4.08-2.48,7.43-2.48,5.94,0,9.9,3.35,9.9,8.42a6.12,6.12,0,0,1-2.47,5c-3.6,2.22-3.35,9.41.24,11.88,4,2.73,9.29,2.48,11.15-.49,2.23-3.59,13.25-3.59,16.46,0s8.55,3.22,11.64-.75,3.22-5.57,0-9.65-8.42-4.34-11.64-.75-13.62,3.47-16.83-.24c-3-3.72-3-8.67.12-10.65s3.34-9,.25-11.77c-3.22-3-9.79-2.72-11.64.38-1.24,1.85-3,2.47-6.81,2.47s-6.07-.74-7.8-2.47C373.08,146,367.26,145.84,364.66,148.81Zm36.86,5.6a4.85,4.85,0,1,1-4.85-4.85A4.86,4.86,0,0,1,401.52,154.41Zm0,22.9a4.85,4.85,0,1,1-4.85-4.85A4.85,4.85,0,0,1,401.52,177.31Z" transform="translate(-25.18 -30.34)"/><path class="cls-2" d="M88.45,74.77A9.9,9.9,0,0,0,86,81.08c0,3-3.1,8.17-12.63,21.67-7.06,9.78-13.5,17.83-14.36,17.83-2.6,0-7.68,5.82-7.68,8.67,0,3.34,5.32,8.66,8.67,8.66,1.36,0,4-1.36,5.69-3.09,2.73-2.73,4.21-3.1,11.77-3.1,6.31,0,8.79.5,9.28,1.74,1.24,3.09,7.31,4.82,10.65,3.09a11.75,11.75,0,0,0,3.71-2.85c1.74-2.6,1-7.8-1.48-10-2.23-2-2.48-3.83-2.48-18.57s.25-16.59,2.48-18.57C104.67,82,101,72.29,94,72.29A9.07,9.07,0,0,0,88.45,74.77Zm-.13,49.15c-2.47,2.48-4,2.85-11.76,2.85-13.25,0-13.13-1.12,1.61-21.55L90.3,88.39l.37,16.34C90.92,120,90.8,121.07,88.32,123.92ZM98.93,80.71a4.85,4.85,0,1,1-4.85-4.85A4.85,4.85,0,0,1,98.93,80.71ZM65,129.24a4.85,4.85,0,1,1-4.85-4.85A4.85,4.85,0,0,1,65,129.24Z" transform="translate(-25.18 -30.34)"/><path class="cls-2" d="M115.81,37.12c-3.34,4.21-3.22,5.7.49,10.16L119.4,51v69.46l-3.1,3.1c-4,4-4,7.43,0,11.27s7.31,4,11.27,0c8.79-8.79,20.93,4.33,13,13.86-3.09,3.72-9.9,3.84-12.87.38-6.32-7.43-18.08,2-12.39,9.78,3.22,4.21,8.92,4.95,12.14,1.36,3-3.22,9.66-3.34,13,0,3,3,7.06,3.22,10.89.49,3.6-2.47,3.72-9.16.25-12.25a8.88,8.88,0,0,1-2.47-6.69c0-3,.86-5.2,2.47-6.69,2.48-2.1,3.35-7.67,1.49-10.27-1.49-2.35-6.44-4.34-8.79-3.59a12.14,12.14,0,0,0-4.46,3.09c-3.1,3.47-8.54,3.1-12.38-.62l-3.1-3.22V51l3.1-3.71c3.71-4.46,3.84-6,.49-10.16a7.33,7.33,0,0,0-12.13,0Zm11,4.86a4.85,4.85,0,1,1-4.85-4.85A4.85,4.85,0,0,1,126.79,42Zm24.59,87.26a4.85,4.85,0,1,1-4.85-4.85A4.85,4.85,0,0,1,151.38,129.24Z" transform="translate(-25.18 -30.34)"/><path class="cls-2" d="M88.69,35.89c-2.35,1.61-2.84,3-2.6,6.68.37,4.46-1.48,7.43-26,41.36C45.6,104,32.73,120.83,31.37,121.2c-6.2,2-8.3,9.9-3.6,13.86,3.35,2.85,3.35,10.41,0,13.38-5.44,4.95-1.73,14.24,5.82,14.24,6.69,0,10.28-9.66,5.33-14.24-3.34-3-3.34-10.53,0-13.38,2.72-2.22,3.34-8.17,1.11-10.4-1.11-1.11,1.61-5.69,10.9-18.57C93.52,47,91.17,50,94.64,50c4.33,0,7.43-3.47,7.43-8.29C102.07,34.77,94.76,31.68,88.69,35.89ZM98.93,42a4.85,4.85,0,1,1-4.85-4.85A4.85,4.85,0,0,1,98.93,42ZM38.12,154.41a4.85,4.85,0,1,1-4.85-4.85A4.85,4.85,0,0,1,38.12,154.41Z" transform="translate(-25.18 -30.34)"/><path class="cls-2" d="M62.07,148.81c-2.72,3.09-2.6,9.28.13,11.76a8.53,8.53,0,0,0,11.39-.37c1.61-1.61,4.08-2.48,7.43-2.48,5.94,0,9.9,3.35,9.9,8.42a6.12,6.12,0,0,1-2.47,5c-3.6,2.22-3.35,9.41.24,11.88,4,2.73,9.29,2.48,11.15-.49,2.23-3.59,13.25-3.59,16.46,0s8.55,3.22,11.64-.75,3.22-5.57,0-9.65-8.42-4.34-11.64-.75-13.62,3.47-16.83-.24c-3-3.72-3-8.67.12-10.65s3.34-9,.25-11.77c-3.22-3-9.78-2.72-11.64.38-1.24,1.85-3,2.47-6.81,2.47s-6.07-.74-7.8-2.47C70.49,146,64.67,145.84,62.07,148.81Zm36.86,5.6a4.85,4.85,0,1,1-4.85-4.85A4.86,4.86,0,0,1,98.93,154.41Zm0,22.9a4.85,4.85,0,1,1-4.85-4.85A4.85,4.85,0,0,1,98.93,177.31Z" transform="translate(-25.18 -30.34)"/></svg>